:FULLY-SPECIFIED
:FORCE-ALL-JOINTS-BE-3DOF
:DEGREES
713
root 5.51387 21.4533 7.36188 -17.8133 -87.5065 33.8833
lfemur -35.3593 -12.7242 10.3287
ltibia 71.048 -0 0
lfoot 7.49706 -8.91492 0.0105349
ltoes 30.471 -0 0
rfemur -32.3086 -0.148855 -0.903312
rtibia 90.22 -0 0
rfoot 20.3328 -20.295 -0.249003
rtoes 40.9777 -0 0
lowerback 6.05934 -1.07169 -1.96755
upperback -1.29705 -1.67361 -1.65257
thorax -4.76167 -0.807547 -0.483077
lowerneck -6.78615 -6.30091 -2.33143
upperneck -0.0933247 -8.38165 5.00461
head 1.46089 -4.12068 1.67789
lclavicle 9.14488e-15 3.48856e-14 -1.24207e-30
lhumerus 2.18866 -20.0866 15.2477
lradius 46.6746 -0 0
lwrist 23.073 0 0
lhand -22.2354 -3.52576 -0.00206374
lfingers 7.12502 -0 0
lthumb 4.18142 26.4139 -0.00183654
rclavicle 9.14488e-15 3.48856e-14 -1.24207e-30
rhumerus -14.0915 -2.60614 -26.0433
rradius 99.8376 -0 0
rwrist -9.97595 0 0
rhand -26.909 -34.4488 0.0325093
rfingers 7.12502 -0 0
rthumb -0.332066 -64.4217 0.0309334
714
root 5.50512 21.5043 7.58039 -84.6546 -88.7273 100.895
lfemur -34.3989 -13.6794 9.34452
ltibia 67.9508 -0 0
lfoot 7.44887 -9.18576 0.00496356
ltoes 30.1403 -0 0
rfemur -33.1992 -0.841321 -1.43694
rtibia 93.8889 -0 0
rfoot 20.8284 -20.6215 -0.126984
rtoes 42.1064 -0 0
lowerback 6.04659 -0.819197 -1.87518
upperback -1.30601 -1.32782 -1.60449
thorax -4.75528 -0.636405 -0.499394
lowerneck -6.83743 -6.37924 -2.39141
upperneck -0.2775 -8.4727 4.95191
head 1.4123 -4.17097 1.66794
lclavicle 1.11148e-14 3.35138e-14 -6.42159e-31
lhumerus 0.218174 -20.1642 15.9267
lradius 45.5471 -0 0
lwrist 22.785 0 0
lhand -22.22 -3.42311 -0.000677357
lfingers 7.12502 -0 0
lthumb 4.19634 26.5155 -0.000613478
rclavicle 1.11148e-14 3.35138e-14 -6.42159e-31
rhumerus -12.5063 -2.21145 -26.8276
rradius 99.525 -0 0
rwrist -9.93216 0 0
rhand -26.6956 -34.1719 0.0150765
rfingers 7.12502 -0 0
rthumb -0.126054 -64.1489 0.0143551
715
root 5.49097 21.5295 7.79601 -140.605 -87.2103 157.04
lfemur -33.5571 -14.4896 8.51967
ltibia 65.1241 0 0
lfoot 7.43438 -9.44215 0
ltoes 29.8338 0 0
rfemur -33.8349 -1.58686 -1.91882
rtibia 97.0122 0 0
rfoot 21.3635 -20.6634 0
rtoes 42.9309 0 0
lowerback 5.99658 -0.553404 -1.77502
upperback -1.3238 -0.963173 -1.56773
thorax -4.7355 -0.456483 -0.530585
lowerneck -6.88249 -6.45178 -2.43303
upperneck -0.433777 -8.5592 4.89979
head 1.37063 -4.21848 1.65523
lclavicle 1.2921e-14 3.18055e-14 0
lhumerus -1.77093 -20.2407 16.623
lradius 44.6521 0 0
lwrist 22.5382 0 0
lhand -22.2191 -3.35407 0
lfingers 7.12502 0 0
lthumb 4.19717 26.5843 0
rclavicle 1.2921e-14 3.18055e-14 0
rhumerus -10.8552 -1.84384 -27.5558
rradius 99.2563 0 0
rwrist -9.86977 0 0
rhand -26.5547 -33.9151 0
rfingers 7.12502 0 0
rthumb 0.0100137 -783.895 0
716
root 5.47163 21.5285 8.01054 -153.015 -84.9917 169.684
lfemur -32.7694 -15.2093 7.81159
ltibia 62.3723 -0 0
lfoot 7.49597 -9.72136 0.00397885
ltoes 29.518 -0 0
rfemur -34.2653 -2.43793 -2.38524
rtibia 99.7795 -0 0
rfoot 21.951 -20.3924 0.134432
rtoes 43.4653 -0 0
lowerback 5.89596 -0.262007 -1.65444
upperback -1.35478 -0.562043 -1.53558
thorax -4.69794 -0.259233 -0.577374
lowerneck -6.92976 -6.51932 -2.45539
upperneck -0.56923 -8.64195 4.83965
head 1.33451 -4.26401 1.63668
lclavicle 1.47509e-14 2.95785e-14 7.51325e-31
lhumerus -3.86222 -20.3438 17.3688
lradius 43.9623 -0 0
lwrist 22.3324 0 0
lhand -22.2162 -3.30814 -7.92495e-05
lfingers 7.12502 -0 0
lthumb 4.19998 26.6303 -7.43096e-05
rclavicle 1.47509e-14 2.95785e-14 7.51325e-31
rhumerus -9.07312 -1.53214 -28.238
rradius 98.9935 -0 0
rwrist -9.8086 0 0
rhand -26.4931 -33.6902 -0.0143614
rfingers 7.12502 -0 0
rthumb 0.0695185 -63.6723 -0.0137304
717
root 5.44781 21.5037 8.22597 -157.842 -82.6425 174.792
lfemur -31.9566 -15.8939 7.15096
ltibia 59.4905 -0 0
lfoot 7.6626 -10.0557 0.0239367
ltoes 29.1568 -0 0
rfemur -34.5638 -3.43926 -2.86776
rtibia 102.424 -0 0
rfoot 22.5932 -19.8188 0.276238
rtoes 43.7574 -0 0
lowerback 5.73759 0.0640808 -1.50383
upperback -1.40139 -0.111572 -1.50079
thorax -4.64018 -0.0383382 -0.638334
lowerneck -6.98751 -6.58335 -2.45986
upperneck -0.693566 -8.72238 4.76394
head 1.30189 -4.30864 1.60994
lclavicle 1.67858e-14 2.67129e-14 1.63183e-30
lhumerus -6.12921 -20.4955 18.2021
lradius 43.4277 -0 0
lwrist 22.1614 0 0
lhand -22.1946 -3.27193 -0.000854286
lfingers 7.12502 -0 0
lthumb 4.22079 26.6665 -0.000818326
rclavicle 1.67858e-14 2.67129e-14 1.63183e-30
rhumerus -7.1125 -1.28973 -28.8966
rradius 98.6945 -0 0
rwrist -9.76789 0 0
rhand -26.5066 -33.5047 -0.0297689
rfingers 7.12502 -0 0
rthumb 0.0564403 -63.4887 -0.0285366
